<?xml version="1.0" encoding="utf-8"?>
<svg version="1.0" id="Layer_1" x="0px" y="0px" viewBox="0 0 83.5 52.1" enable-background="new 0 0 83.5 52.1" xmlns="http://www.w3.org/2000/svg">
  <path fill="#333" d="M67.2,52.1h-48C8.6,52.1,0,43.5,0,32.9c0-8.4,5.3-15.7,13.2-18.3C16.2,5.9,24.3,0,33.7,0&#10;&#9;&#9;c10.2,0,18.8,7,21.1,16.7c2.8,0.5,5.4,1.7,7.5,3.6c1.6-0.5,3.2-0.8,4.9-0.8c9,0,16.3,7.3,16.3,16.3C83.5,44.8,76.2,52.1,67.2,52.1z&#10;&#9;&#9; M33.7,6c-7.2,0-13.4,4.9-15.1,11.8l-0.4,1.8L16.3,20C10.2,21.4,6,26.7,6,32.9c0,7.3,5.9,13.2,13.2,13.2h48&#10;&#9;&#9;c5.7,0,10.3-4.6,10.3-10.3s-4.6-10.3-10.3-10.3c-1.5,0-3,0.3-4.4,1l-2.1,1l-1.5-1.8c-1.7-2-4.2-3.2-6.8-3.2c-0.1,0-0.1,0-0.2,0&#10;&#9;&#9;l-2.7,0l-0.3-2.7C48.3,12,41.6,6,33.7,6z"/>
</svg>
