<?xml version="1.0" encoding="utf-8"?>
<svg version="1.0" id="Layer_1" x="0px" y="0px" viewBox="49.7 57.8 79.8 64.3" enable-background="new 49.7 57.8 79.8 64.3" xmlns="http://www.w3.org/2000/svg">
  <path fill="#FBB040" d="M 110.3 98.5 C 109.7 98.5 109 98.3 108.5 97.9 C 107.2 96.9 107 95 108 93.7 C 109.4 91.9 110.2 89.7 110.2 87.4 C 110.2 81.8 105.6 77.2 100 77.2 C 97.2 77.2 94.6 78.3 92.7 80.3 C 91.5 81.5 89.6 81.5 88.5 80.4 C 87.3 79.2 87.3 77.3 88.4 76.2 C 91.5 73 95.6 71.3 100 71.3 C 108.9 71.3 116.2 78.6 116.2 87.5 C 116.2 91.1 115 94.6 112.8 97.5 C 112.1 98.1 111.2 98.5 110.3 98.5 Z"/>
  <path fill="#FBB040" d="M 99.9 69.3 C 98.2 69.3 96.9 68 96.9 66.3 L 96.9 60.8 C 96.9 59.1 98.2 57.8 99.9 57.8 C 101.6 57.8 102.9 59.1 102.9 60.8 L 102.9 66.3 C 102.9 68 101.6 69.3 99.9 69.3 Z"/>
  <path fill="#FBB040" d="M 126.4 90.3 L 121 90.3 C 119.3 90.3 118 89 118 87.3 C 118 85.6 119.3 84.3 121 84.3 L 126.5 84.3 C 128.2 84.3 129.5 85.6 129.5 87.3 C 129.5 89 128.1 90.3 126.4 90.3 Z"/>
  <path fill="#FBB040" d="M 114.8 75.5 C 114 75.5 113.3 75.2 112.7 74.6 C 111.5 73.4 111.5 71.5 112.7 70.4 L 114.8 68.3 C 116 67.1 117.9 67.1 119 68.3 C 120.2 69.5 120.2 71.4 119 72.5 L 116.9 74.6 C 116.3 75.2 115.6 75.5 114.8 75.5 Z"/>
  <path fill="#FBB040" d="M 116.9 107.4 C 116.1 107.4 115.4 107.1 114.8 106.5 L 112.7 104.4 C 111.5 103.2 111.5 101.3 112.7 100.2 C 113.9 99 115.8 99 116.9 100.2 L 119 102.3 C 120.2 103.5 120.2 105.4 119 106.5 C 118.5 107.1 117.7 107.4 116.9 107.4 Z"/>
  <path fill="#FBB040" d="M 85 75.5 C 84.2 75.5 83.5 75.2 82.9 74.6 L 80.8 72.5 C 79.6 71.3 79.6 69.4 80.8 68.3 C 82 67.1 83.9 67.1 85 68.3 L 87.1 70.4 C 88.3 71.6 88.3 73.5 87.1 74.6 C 86.6 75.2 85.8 75.5 85 75.5 Z"/>
  <path fill="#333" d="M 93.8 122.1 L 65.4 122.1 C 56.8 122.1 49.7 115.1 49.7 106.4 C 49.7 99.7 53.9 93.8 60.1 91.7 C 62.5 84.6 69.2 79.7 76.8 79.7 C 84.5 79.7 91.2 84.8 93.5 91.9 C 102 91.6 109 98.5 109 107 C 109 115.3 102.2 122.1 93.8 122.1 Z M 76.7 85.6 C 71.3 85.6 66.6 89.4 65.4 94.7 L 65 96.6 L 63.2 97 C 58.8 98 55.7 101.9 55.7 106.4 C 55.7 111.7 60 116.1 65.4 116.1 L 93.9 116.1 C 98.9 116.1 103 112 103 107 C 103 102 98.9 97.9 93.9 97.9 C 93.2 97.9 92.5 98 91.9 98.1 L 88.7 98.8 L 88.2 95.6 C 87.4 89.9 82.5 85.6 76.7 85.6 Z"/>
</svg>
