<?xml version="1.0" encoding="utf-8"?>
<svg version="1.0" id="Layer_1" x="0px" y="0px" viewBox="0 0 180 180" enable-background="new 0 0 180 180" xmlns="http://www.w3.org/2000/svg">
  <path fill="#FBB040" d="M 90.1 138.1 C 63.6 138.1 42.1 116.6 42.1 90.1 C 42.1 63.6 63.6 42.1 90.1 42.1 C 116.6 42.1 138.1 63.6 138.1 90.1 C 138.1 116.6 116.6 138.1 90.1 138.1 Z M 90.1 55.1 C 70.7 55.1 55 70.8 55 90.2 C 55 109.6 70.7 125.3 90.1 125.3 C 109.5 125.3 125.2 109.6 125.2 90.2 C 125.2 70.8 109.5 55.1 90.1 55.1 Z"/>
  <path fill="#FBB040" d="M 90.1 36.8 C 86.4 36.8 83.6 34 83.6 30.3 L 83.6 6.5 C 83.6 2.8 86.4 0 90.1 0 C 93.8 0 96.6 2.8 96.6 6.5 L 96.6 30.4 C 96.6 34 93.5 36.8 90.1 36.8 Z"/>
  <path fill="#FBB040" d="M 173.5 96.6 L 149.6 96.6 C 145.9 96.6 143.1 93.8 143.1 90.1 C 143.1 86.4 145.9 83.6 149.6 83.6 L 173.5 83.6 C 177.2 83.6 180 86.4 180 90.1 C 180 93.5 177.2 96.6 173.5 96.6 Z"/>
  <path fill="#FBB040" d="M 90.1 180 C 86.4 180 83.6 177.2 83.6 173.5 L 83.6 149.6 C 83.6 145.9 86.4 143.1 90.1 143.1 C 93.8 143.1 96.6 145.9 96.6 149.6 L 96.6 173.5 C 96.6 177.2 93.5 180 90.1 180 Z"/>
  <path fill="#FBB040" d="M 30.3 96.6 L 6.5 96.6 C 2.8 96.6 0 93.8 0 90.1 C 0 86.4 2.8 83.6 6.5 83.6 L 30.4 83.6 C 34.1 83.6 36.9 86.4 36.9 90.1 C 36.8 93.5 34 96.6 30.3 96.6 Z"/>
  <path fill="#FBB040" d="M 132.3 54.2 C 130.6 54.2 129.1 53.6 127.8 52.3 C 125.2 49.7 125.2 45.6 127.8 43.3 L 139.2 31.9 C 141.8 29.3 145.9 29.3 148.2 31.9 C 150.8 34.5 150.8 38.6 148.2 40.9 L 136.8 52.3 C 135.7 53.5 134 54.2 132.3 54.2 Z"/>
  <path fill="#FBB040" d="M 143.7 150.1 C 142 150.1 140.5 149.5 139.2 148.2 L 127.8 136.8 C 125.2 134.2 125.2 130.1 127.8 127.8 C 130.4 125.2 134.5 125.2 136.8 127.8 L 148.2 139.2 C 150.8 141.8 150.8 145.9 148.2 148.2 C 147.1 149.5 145.4 150.1 143.7 150.1 Z"/>
  <path fill="#FBB040" d="M 36.3 150.1 C 34.6 150.1 33.1 149.5 31.8 148.2 C 29.2 145.6 29.2 141.5 31.8 139.2 L 43.2 127.8 C 45.8 125.2 49.9 125.2 52.2 127.8 C 54.8 130.4 54.8 134.5 52.2 136.8 L 40.8 148.2 C 39.8 149.5 38.1 150.1 36.3 150.1 Z"/>
  <path fill="#FBB040" d="M 48 54.2 C 46.3 54.2 44.8 53.6 43.5 52.3 L 31.8 40.9 C 29.2 38.3 29.2 34.2 31.8 31.9 C 34.4 29.3 38.5 29.3 40.8 31.9 L 52.2 43.3 C 54.8 45.9 54.8 50 52.2 52.3 C 51.2 53.5 49.5 54.2 48 54.2 Z"/>
</svg>