<?xml version="1.0" encoding="utf-8"?>
<svg version="1.0" id="Layer_1" x="0px" y="0px" viewBox="59.6 58.9 59.3 61.7" enable-background="new 59.6 58.9 59.3 61.7" xmlns="http://www.w3.org/2000/svg">
  <path fill="#7BB7E4" d="M 63.7 120.6 C 63.3 120.6 63 120.5 62.6 120.4 C 61.1 119.8 60.3 118.1 60.9 116.5 L 61.2 115.6 C 61.8 114.1 63.5 113.3 65.1 113.9 C 66.6 114.5 67.4 116.2 66.8 117.8 L 66.5 118.7 C 66 119.9 64.9 120.6 63.7 120.6 Z"/>
  <path fill="#7BB7E4" d="M 67.6 110.6 C 67.2 110.6 66.9 110.5 66.5 110.4 C 65 109.8 64.2 108.1 64.8 106.5 L 67 100.8 C 67.6 99.3 69.3 98.5 70.9 99.1 C 72.4 99.7 73.2 101.4 72.6 103 L 70.4 108.7 C 69.9 109.9 68.8 110.6 67.6 110.6 Z"/>
  <path fill="#7BB7E4" d="M 72.3 98.6 C 71.9 98.6 71.6 98.5 71.2 98.4 C 69.7 97.8 68.9 96.1 69.5 94.5 L 70.1 93 C 70.7 91.5 72.4 90.7 74 91.3 C 75.5 91.9 76.3 93.6 75.7 95.2 L 75.1 96.7 C 74.6 97.9 73.5 98.6 72.3 98.6 Z"/>
  <path fill="#7BB7E4" d="M 96.2 120.6 C 95.8 120.6 95.5 120.5 95.1 120.4 C 93.6 119.8 92.8 118.1 93.4 116.5 L 93.5 116.3 C 94.1 114.8 95.8 114 97.4 114.6 C 98.9 115.2 99.7 116.9 99.1 118.5 L 99 118.7 C 98.5 119.9 97.4 120.6 96.2 120.6 Z"/>
  <path fill="#7BB7E4" d="M 99.1 113 C 98.7 113 98.4 112.9 98 112.8 C 96.5 112.2 95.7 110.5 96.3 108.9 L 96.8 107.7 C 97.4 106.2 99.1 105.4 100.7 106 C 102.2 106.6 103 108.3 102.4 109.9 L 101.9 111.1 C 101.4 112.3 100.3 113 99.1 113 Z"/>
  <path fill="#7BB7E4" d="M 102.5 104.4 C 102.1 104.4 101.8 104.3 101.4 104.2 C 99.9 103.6 99.1 101.9 99.7 100.3 L 102.5 93 C 103.1 91.5 104.8 90.7 106.4 91.3 C 107.9 91.9 108.7 93.6 108.1 95.2 L 105.3 102.5 C 104.8 103.7 103.7 104.4 102.5 104.4 Z"/>
  <path fill="#333" d="M 114.7 94.3 C 114.3 94.3 113.8 94.2 113.4 94 C 111.9 93.3 111.3 91.5 112 90 C 112.6 88.8 112.9 87.4 112.9 86.1 C 112.9 81.1 108.8 77 103.8 77 C 103.1 77 102.4 77.1 101.8 77.2 L 98.5 78 L 98 74.8 C 97.2 69.1 92.3 64.9 86.6 64.9 C 81.2 64.9 76.5 68.7 75.3 74 L 74.9 75.9 L 73 76.3 C 68.6 77.3 65.5 81.2 65.5 85.7 C 65.5 87.2 65.9 88.7 66.6 90.1 C 67.4 91.6 66.8 93.4 65.3 94.1 C 63.8 94.8 62 94.3 61.3 92.8 C 60.2 90.6 59.6 88.2 59.6 85.7 C 59.6 79 63.8 73.1 70 70.9 C 72.4 63.8 79.1 58.9 86.7 58.9 C 94.4 58.9 101.1 64 103.4 71.1 C 103.5 71.1 103.7 71.1 103.8 71.1 C 112.1 71.1 118.9 77.9 118.9 86.2 C 118.9 88.4 118.4 90.6 117.4 92.7 C 116.9 93.7 115.8 94.3 114.7 94.3 Z"/>
  <path fill="#FF9838" d="M 89.277 104.456 C 89.085 104.132 88.723 103.932 88.331 103.932 L 83.007 103.932 L 89.25 90.558 C 89.559 90.069 89.391 89.434 88.877 89.141 C 88.363 88.847 87.694 89.005 87.385 89.494 L 80.154 104.433 C 79.845 104.922 80.011 105.555 80.527 105.849 C 80.674 105.934 80.835 105.978 80.997 105.991 C 80.998 105.991 80.999 105.991 81 105.991 C 81.027 105.994 81.057 105.997 81.084 105.997 C 81.089 105.997 81.093 105.996 81.097 105.996 C 81.101 105.996 81.103 105.997 81.108 105.997 L 86.41 105.997 L 80.169 118.932 C 79.859 119.421 80.026 120.055 80.541 120.348 C 80.716 120.449 80.909 120.496 81.1 120.496 C 81.469 120.496 81.829 120.317 82.032 119.996 L 89.264 105.496 C 89.465 105.177 89.471 104.78 89.277 104.456 Z"/>
</svg>
